<mxfile host="app.diagrams.net" modified="2022-04-27T12:48:59.310Z" agent="5.0 (Windows NT 10.0; Win64; x64) AppleWebKit/537.36 (KHTML, like Gecko) Chrome/100.0.4896.127 Safari/537.36 Edg/100.0.1185.50" etag="gvkvAMno2iOOtGmmHadg" version="17.4.6" type="github">
  <diagram id="U_d492CL5c7FxcgkP_Qf" name="Page-1">
    <mxGraphModel dx="1038" dy="579" grid="1" gridSize="10" guides="1" tooltips="1" connect="1" arrows="1" fold="1" page="1" pageScale="1" pageWidth="850" pageHeight="1100" math="0" shadow="0">
      <root>
        <mxCell id="0" />
        <mxCell id="1" parent="0" />
        <mxCell id="C0KfEJ_-4JlkbdyydOy8-4" value="" style="edgeStyle=orthogonalEdgeStyle;rounded=0;orthogonalLoop=1;jettySize=auto;html=1;" edge="1" parent="1" source="C0KfEJ_-4JlkbdyydOy8-2" target="C0KfEJ_-4JlkbdyydOy8-3">
          <mxGeometry relative="1" as="geometry" />
        </mxCell>
        <mxCell id="C0KfEJ_-4JlkbdyydOy8-2" value="start" style="rounded=1;whiteSpace=wrap;html=1;" vertex="1" parent="1">
          <mxGeometry x="310" y="20" width="90" height="30" as="geometry" />
        </mxCell>
        <mxCell id="C0KfEJ_-4JlkbdyydOy8-6" value="" style="edgeStyle=orthogonalEdgeStyle;rounded=0;orthogonalLoop=1;jettySize=auto;html=1;" edge="1" parent="1" source="C0KfEJ_-4JlkbdyydOy8-3" target="C0KfEJ_-4JlkbdyydOy8-5">
          <mxGeometry relative="1" as="geometry" />
        </mxCell>
        <mxCell id="C0KfEJ_-4JlkbdyydOy8-3" value="get the player 1,2 truck coins" style="rounded=0;whiteSpace=wrap;html=1;" vertex="1" parent="1">
          <mxGeometry x="295" y="90" width="120" height="60" as="geometry" />
        </mxCell>
        <mxCell id="C0KfEJ_-4JlkbdyydOy8-8" value="yes" style="edgeStyle=orthogonalEdgeStyle;rounded=0;orthogonalLoop=1;jettySize=auto;html=1;" edge="1" parent="1" source="C0KfEJ_-4JlkbdyydOy8-5" target="C0KfEJ_-4JlkbdyydOy8-7">
          <mxGeometry relative="1" as="geometry" />
        </mxCell>
        <mxCell id="C0KfEJ_-4JlkbdyydOy8-10" value="no" style="edgeStyle=orthogonalEdgeStyle;rounded=0;orthogonalLoop=1;jettySize=auto;html=1;" edge="1" parent="1" source="C0KfEJ_-4JlkbdyydOy8-5" target="C0KfEJ_-4JlkbdyydOy8-9">
          <mxGeometry relative="1" as="geometry" />
        </mxCell>
        <mxCell id="C0KfEJ_-4JlkbdyydOy8-5" value="IF player 1 = player 2 coins are same" style="rhombus;whiteSpace=wrap;html=1;rounded=0;" vertex="1" parent="1">
          <mxGeometry x="315" y="190" width="80" height="80" as="geometry" />
        </mxCell>
        <mxCell id="C0KfEJ_-4JlkbdyydOy8-7" value="set game status 0(draw)" style="whiteSpace=wrap;html=1;rounded=0;" vertex="1" parent="1">
          <mxGeometry x="455" y="200" width="120" height="60" as="geometry" />
        </mxCell>
        <mxCell id="C0KfEJ_-4JlkbdyydOy8-12" value="yes" style="edgeStyle=orthogonalEdgeStyle;rounded=0;orthogonalLoop=1;jettySize=auto;html=1;" edge="1" parent="1" source="C0KfEJ_-4JlkbdyydOy8-9" target="C0KfEJ_-4JlkbdyydOy8-11">
          <mxGeometry relative="1" as="geometry">
            <Array as="points">
              <mxPoint x="440" y="390" />
              <mxPoint x="440" y="390" />
            </Array>
          </mxGeometry>
        </mxCell>
        <mxCell id="C0KfEJ_-4JlkbdyydOy8-16" value="no" style="edgeStyle=orthogonalEdgeStyle;rounded=0;orthogonalLoop=1;jettySize=auto;html=1;" edge="1" parent="1" source="C0KfEJ_-4JlkbdyydOy8-9" target="C0KfEJ_-4JlkbdyydOy8-14">
          <mxGeometry relative="1" as="geometry" />
        </mxCell>
        <mxCell id="C0KfEJ_-4JlkbdyydOy8-9" value="ELSE IF player 1 &amp;gt; player 2 coins&amp;nbsp;" style="rhombus;whiteSpace=wrap;html=1;rounded=0;" vertex="1" parent="1">
          <mxGeometry x="315" y="350" width="80" height="80" as="geometry" />
        </mxCell>
        <mxCell id="C0KfEJ_-4JlkbdyydOy8-11" value="set game status 1(player 1 win)" style="whiteSpace=wrap;html=1;rounded=0;" vertex="1" parent="1">
          <mxGeometry x="455" y="360" width="120" height="60" as="geometry" />
        </mxCell>
        <mxCell id="C0KfEJ_-4JlkbdyydOy8-13" value="yes" style="edgeStyle=orthogonalEdgeStyle;rounded=0;orthogonalLoop=1;jettySize=auto;html=1;" edge="1" parent="1" source="C0KfEJ_-4JlkbdyydOy8-14" target="C0KfEJ_-4JlkbdyydOy8-15">
          <mxGeometry relative="1" as="geometry">
            <Array as="points">
              <mxPoint x="440" y="500" />
              <mxPoint x="440" y="500" />
            </Array>
          </mxGeometry>
        </mxCell>
        <mxCell id="C0KfEJ_-4JlkbdyydOy8-18" value="" style="edgeStyle=orthogonalEdgeStyle;rounded=0;orthogonalLoop=1;jettySize=auto;html=1;" edge="1" parent="1" source="C0KfEJ_-4JlkbdyydOy8-14" target="C0KfEJ_-4JlkbdyydOy8-17">
          <mxGeometry relative="1" as="geometry" />
        </mxCell>
        <mxCell id="C0KfEJ_-4JlkbdyydOy8-14" value="ELSE IF player 1 &amp;lt; player 2 coins&amp;nbsp;" style="rhombus;whiteSpace=wrap;html=1;rounded=0;" vertex="1" parent="1">
          <mxGeometry x="315" y="460" width="85" height="80" as="geometry" />
        </mxCell>
        <mxCell id="C0KfEJ_-4JlkbdyydOy8-15" value="set game status 2(player 2 win)" style="whiteSpace=wrap;html=1;rounded=0;" vertex="1" parent="1">
          <mxGeometry x="455" y="470" width="120" height="60" as="geometry" />
        </mxCell>
        <mxCell id="C0KfEJ_-4JlkbdyydOy8-20" value="" style="edgeStyle=orthogonalEdgeStyle;rounded=0;orthogonalLoop=1;jettySize=auto;html=1;" edge="1" parent="1" source="C0KfEJ_-4JlkbdyydOy8-17" target="C0KfEJ_-4JlkbdyydOy8-19">
          <mxGeometry relative="1" as="geometry" />
        </mxCell>
        <mxCell id="C0KfEJ_-4JlkbdyydOy8-17" value="Return game status" style="whiteSpace=wrap;html=1;rounded=0;" vertex="1" parent="1">
          <mxGeometry x="305" y="580" width="120" height="60" as="geometry" />
        </mxCell>
        <mxCell id="C0KfEJ_-4JlkbdyydOy8-19" value="end" style="ellipse;whiteSpace=wrap;html=1;rounded=0;" vertex="1" parent="1">
          <mxGeometry x="505" y="580" width="85" height="50" as="geometry" />
        </mxCell>
      </root>
    </mxGraphModel>
  </diagram>
</mxfile>
